<?xml version="1.0" encoding="UTF-8" ?>
<!DOCTYPE svg PUBLIC "-//W3C//DTD SVG 1.1//EN" "http://www.w3.org/Graphics/SVG/1.1/DTD/svg11.dtd">
<svg width="1067pt" height="1067pt" viewBox="0 0 1067 1067" version="1.1" xmlns="http://www.w3.org/2000/svg">
<g id="#070909ff">
<path fill="#070909" opacity="1.00" d=" M 0.00 0.00 L 1067.00 0.00 L 1067.00 1067.00 L 0.00 1067.00 L 0.00 0.00 M 359.58 222.71 C 359.88 226.55 360.02 230.56 358.30 234.13 C 355.75 239.84 354.49 246.40 349.91 250.97 C 345.00 256.42 338.06 259.20 331.95 262.99 C 323.12 268.41 314.39 274.00 306.01 280.09 C 298.84 285.43 291.63 291.30 287.43 299.37 C 283.68 306.70 283.74 315.26 284.86 323.22 C 286.24 331.97 291.47 339.50 292.81 348.25 C 298.04 341.26 302.26 333.52 305.42 325.39 C 308.74 317.06 312.97 308.87 319.46 302.54 C 326.58 295.81 335.75 290.45 345.82 290.58 C 338.83 301.90 329.35 312.15 326.18 325.42 C 330.39 330.67 333.77 336.57 336.07 342.90 C 338.93 350.19 339.55 358.42 336.48 365.76 C 347.89 365.53 359.15 362.38 369.32 357.29 C 381.39 350.88 391.75 340.44 396.38 327.40 C 398.95 320.19 401.28 312.78 401.74 305.08 C 402.55 296.32 400.18 287.64 396.89 279.60 C 395.13 284.00 393.91 288.63 391.76 292.87 C 388.92 298.69 383.58 303.51 377.09 304.69 C 370.89 306.03 364.73 303.06 359.98 299.29 C 365.63 294.91 371.17 290.06 374.69 283.73 C 377.60 278.68 378.52 272.79 379.07 267.07 C 380.16 250.36 373.51 232.61 359.58 222.71 M 823.32 283.50 C 821.26 310.76 817.64 337.87 814.65 365.04 C 813.87 373.62 812.36 382.16 812.48 390.81 C 812.10 390.66 811.34 390.36 810.95 390.21 C 810.65 387.84 810.32 385.47 809.76 383.16 C 806.71 370.91 803.82 358.61 800.51 346.42 C 795.11 326.38 790.29 306.18 784.48 286.26 C 775.08 286.84 765.74 288.09 756.38 289.04 C 751.25 289.99 745.90 289.11 740.90 290.76 C 740.64 291.03 740.14 291.59 739.89 291.87 C 738.54 305.64 737.49 319.44 735.84 333.19 C 733.11 356.50 731.43 379.91 728.76 403.22 C 726.25 425.09 724.61 447.03 722.73 468.95 C 722.16 474.37 721.48 479.80 721.53 485.27 C 731.99 483.81 742.47 482.40 753.02 481.86 C 754.37 481.45 756.80 482.25 757.05 480.27 C 760.34 452.79 762.16 425.17 765.30 397.68 C 766.14 387.81 767.91 378.03 767.95 368.11 C 768.29 368.44 768.97 369.09 769.31 369.42 C 775.93 393.88 783.13 418.21 789.06 442.87 C 791.90 454.39 795.66 465.67 798.34 477.23 C 812.09 476.27 825.79 474.66 839.51 473.36 C 840.03 471.07 840.51 468.78 840.68 466.44 C 842.49 444.85 845.24 423.36 847.22 401.80 C 849.32 381.20 850.76 360.55 853.29 340.00 C 855.52 320.13 857.00 300.18 859.52 280.35 C 847.40 280.47 835.43 283.00 823.32 283.50 M 655.63 297.12 C 643.23 299.14 630.87 303.90 621.73 312.75 C 609.66 323.94 603.78 340.18 601.51 356.14 C 599.48 370.49 597.34 384.84 596.07 399.28 C 594.84 420.87 590.86 442.44 592.86 464.10 C 594.11 472.65 596.65 481.79 603.45 487.65 C 610.39 493.71 620.11 494.91 628.99 494.90 C 643.67 495.12 658.81 493.41 672.19 487.00 C 684.86 480.95 694.51 469.71 699.86 456.86 C 707.77 438.24 709.82 417.83 711.69 397.89 C 713.43 383.62 714.26 369.28 715.53 354.97 C 715.71 344.63 716.39 334.10 713.75 323.98 C 711.83 314.93 707.14 305.75 698.69 301.24 C 685.67 293.84 669.89 295.43 655.63 297.12 M 537.03 310.04 C 515.66 311.41 494.49 315.03 473.06 315.54 C 471.45 328.33 470.42 341.18 469.04 354.00 C 467.57 372.71 465.13 391.31 463.47 410.00 C 461.57 426.96 460.35 443.98 458.48 460.94 C 457.19 476.48 454.64 491.92 454.17 507.51 C 472.74 505.85 491.32 503.92 509.95 502.98 C 522.32 501.60 535.03 499.96 546.24 494.18 C 554.99 489.70 561.98 482.08 566.20 473.25 C 570.17 464.36 571.90 454.67 573.03 445.05 C 574.06 436.39 575.30 427.63 574.49 418.89 C 574.07 413.68 572.33 408.22 568.23 404.74 C 563.46 400.47 556.67 400.43 550.70 399.49 C 557.62 396.70 564.53 393.23 569.37 387.37 C 577.91 377.70 579.67 364.33 581.16 352.02 C 581.49 342.65 581.98 332.84 578.08 324.07 C 575.70 318.44 571.09 313.64 565.17 311.82 C 556.08 309.10 546.40 309.01 537.03 310.04 M 296.48 355.52 C 286.42 365.07 279.87 378.23 278.13 391.99 C 278.21 393.80 277.42 396.59 279.49 397.57 C 284.16 399.80 289.49 399.03 294.46 398.62 C 297.20 390.81 297.45 382.10 301.97 374.97 C 306.99 366.63 315.74 360.32 325.49 359.08 C 326.85 354.83 326.04 349.35 322.05 346.80 C 312.75 345.02 303.38 349.51 296.48 355.52 M 279.02 418.25 C 272.01 418.98 264.96 418.76 257.93 418.56 C 254.01 418.59 249.83 418.35 246.26 420.27 C 243.01 421.83 241.52 425.47 240.81 428.80 C 240.13 440.92 241.56 453.19 239.49 465.22 C 222.33 472.15 205.43 480.96 192.48 494.45 C 184.09 502.28 177.22 511.57 171.45 521.45 C 163.43 534.81 157.65 549.55 155.19 564.98 C 147.52 604.91 158.01 648.91 186.16 678.83 C 198.01 690.77 211.47 701.58 227.23 707.87 C 242.81 714.79 260.04 716.81 276.93 717.32 C 297.78 717.00 318.51 711.49 336.99 701.87 C 349.64 694.78 361.31 685.76 371.08 675.03 C 377.45 668.02 381.48 659.39 386.09 651.22 C 405.23 616.51 409.09 573.29 394.75 536.16 C 387.94 519.13 377.43 503.45 363.57 491.37 C 340.20 471.17 309.30 459.84 278.39 460.51 C 278.05 452.86 278.04 445.18 278.76 437.55 C 291.34 436.82 303.80 438.72 316.32 439.56 C 317.20 435.48 317.91 431.28 317.58 427.10 C 316.67 423.20 312.98 420.27 309.06 419.82 C 299.14 418.39 289.04 416.98 279.02 418.25 M 857.73 495.97 C 856.08 504.38 855.19 512.93 854.32 521.45 C 861.99 520.44 869.74 521.29 877.42 520.37 C 874.32 542.79 872.24 565.35 869.39 587.81 C 866.91 607.28 865.07 626.82 862.58 646.29 C 872.29 644.88 882.06 643.82 891.88 643.52 C 893.08 635.74 893.52 627.86 894.52 620.05 C 896.46 599.70 899.36 579.45 901.61 559.13 C 903.64 545.07 905.41 530.97 906.65 516.81 C 914.05 516.58 921.39 515.36 928.82 515.58 C 929.58 506.60 930.63 497.65 930.74 488.63 C 906.57 492.62 881.99 492.76 857.73 495.97 M 820.46 499.42 C 818.83 515.28 816.87 531.12 814.96 546.96 C 813.44 559.49 812.94 572.15 810.96 584.61 C 809.08 578.56 808.35 572.25 806.96 566.09 C 802.83 544.67 798.81 523.23 793.68 502.02 C 784.27 502.59 774.91 503.89 765.50 504.46 C 764.44 519.35 762.62 534.17 760.85 548.99 C 758.55 569.67 755.96 590.31 753.51 610.97 C 751.91 625.96 750.05 640.91 747.71 655.80 C 756.41 654.82 765.14 654.23 773.83 653.14 C 775.82 638.14 777.02 623.05 779.08 608.05 C 780.35 595.60 782.15 583.20 782.74 570.70 C 784.70 573.79 785.05 577.50 786.02 580.96 C 792.11 604.05 797.19 627.39 801.46 650.88 C 811.36 649.90 821.31 649.43 831.21 648.38 C 831.13 630.80 834.48 613.45 836.34 596.02 C 839.92 562.82 844.58 529.75 847.72 496.51 C 838.65 497.69 829.49 498.09 820.46 499.42 M 687.65 510.70 C 673.98 561.64 660.42 612.60 647.10 663.63 C 656.13 663.04 665.14 662.40 674.19 662.21 C 676.69 653.69 678.64 645.00 681.43 636.57 C 689.69 635.48 698.04 635.57 706.32 634.61 C 706.41 642.92 706.25 651.23 706.52 659.53 C 716.78 657.99 727.14 657.60 737.45 656.75 C 736.36 615.00 732.65 573.41 730.95 531.70 C 729.92 523.57 730.53 515.33 729.35 507.22 C 715.41 507.85 701.60 510.34 687.65 510.70 M 641.84 514.93 C 640.40 515.18 640.34 516.91 639.87 517.98 C 636.81 528.17 634.39 538.55 632.10 548.93 C 627.18 572.23 621.29 595.31 615.24 618.33 C 613.73 624.02 613.11 629.90 611.65 635.60 C 611.11 618.74 611.80 601.82 611.10 584.95 C 610.17 570.97 610.62 556.94 610.10 542.95 C 609.40 534.54 609.45 526.10 609.30 517.67 C 598.93 518.80 588.57 520.05 578.15 520.65 C 577.94 529.47 579.20 538.23 579.42 547.04 C 582.02 588.02 585.79 628.91 587.61 669.93 C 598.11 669.60 608.51 667.82 619.02 667.58 C 621.38 667.28 625.16 667.95 625.67 664.73 C 633.83 637.18 642.44 609.76 650.21 582.09 C 655.89 563.27 660.73 544.21 666.68 525.47 C 668.12 521.24 669.51 516.99 670.23 512.57 C 660.81 513.84 651.31 514.35 641.84 514.93 M 539.44 523.85 C 538.06 533.54 537.59 543.34 536.48 553.07 C 533.73 578.36 531.09 603.66 528.26 628.94 C 526.85 644.57 524.11 660.12 523.83 675.84 C 533.43 674.48 543.15 674.34 552.77 673.19 C 553.02 666.07 553.87 658.99 554.65 651.91 C 556.34 634.57 558.08 617.25 560.44 599.99 C 563.63 573.84 566.13 547.60 569.87 521.51 C 559.70 521.97 549.60 523.30 539.44 523.85 M 502.93 527.18 C 501.36 526.98 501.61 528.95 501.24 529.89 C 498.73 543.07 495.15 556.01 492.23 569.10 C 487.91 588.23 482.56 607.10 477.71 626.10 C 475.94 632.78 474.89 639.64 472.99 646.30 C 472.72 643.89 472.56 641.48 472.70 639.07 C 473.11 628.72 472.59 618.37 472.33 608.03 C 471.92 597.05 472.27 586.06 472.13 575.08 C 471.95 559.80 471.72 544.52 472.10 529.24 C 461.57 529.91 451.10 531.40 440.61 532.52 C 440.91 548.90 442.73 565.22 442.96 581.61 C 443.87 590.68 443.59 599.82 444.40 608.90 C 445.56 633.18 448.09 657.37 449.47 681.64 C 454.99 681.74 460.46 680.75 465.97 680.44 C 474.47 680.08 482.94 679.35 491.41 678.73 C 495.14 664.89 498.20 650.87 501.84 637.01 C 507.08 616.98 512.54 597.01 517.58 576.94 C 521.89 559.14 528.31 541.90 532.47 524.07 C 522.66 525.52 512.76 526.02 502.93 527.18 M 825.21 690.46 C 823.41 700.94 822.63 711.56 821.28 722.11 C 820.33 732.53 818.56 742.86 817.65 753.29 C 826.74 751.67 836.14 752.14 845.12 749.78 C 851.63 748.06 857.83 743.96 860.70 737.69 C 864.18 729.97 864.24 721.34 865.36 713.10 C 865.89 707.50 867.31 701.55 864.79 696.20 C 863.02 692.16 858.82 690.25 854.99 688.69 C 845.03 688.07 835.05 689.02 825.21 690.46 M 766.09 696.51 C 764.85 701.47 762.70 706.14 760.99 710.95 C 754.91 727.19 749.07 743.52 743.13 759.81 C 747.47 759.45 751.84 759.57 756.18 759.11 C 758.96 755.60 759.20 750.62 760.85 746.51 C 766.43 745.82 772.08 745.71 777.63 744.75 C 778.22 748.60 778.29 752.49 778.44 756.39 C 782.93 756.22 787.35 755.36 791.84 755.12 C 791.92 749.68 790.91 744.32 790.55 738.92 C 788.82 724.16 787.51 709.35 785.40 694.64 C 778.95 695.07 772.48 695.59 766.09 696.51 M 683.58 703.55 C 682.22 707.55 682.39 711.81 681.69 715.94 C 679.89 732.83 677.76 749.68 676.06 766.58 C 684.31 765.13 692.73 764.97 700.98 763.50 C 709.28 761.99 717.44 756.49 719.83 748.06 C 722.17 739.65 722.54 730.86 723.81 722.25 C 724.31 717.50 724.76 712.20 721.89 708.06 C 718.81 703.70 713.18 701.75 707.99 702.07 C 699.81 701.76 691.72 703.11 683.58 703.55 M 639.93 707.48 C 638.65 710.53 638.71 713.87 638.40 717.12 C 636.06 734.84 633.87 752.59 631.41 770.30 C 635.78 770.01 640.15 769.76 644.52 769.48 C 645.80 763.70 646.09 757.76 646.83 751.90 C 648.27 736.76 650.58 721.70 651.89 706.55 C 647.92 707.02 643.93 707.30 639.93 707.48 M 582.89 712.79 C 579.73 714.13 576.45 715.56 574.15 718.20 C 571.13 721.63 569.67 726.12 568.98 730.57 C 567.37 741.63 565.74 752.71 564.76 763.85 C 564.37 769.19 567.61 774.82 573.15 775.82 C 580.62 776.77 588.75 776.27 595.45 772.53 C 602.79 768.09 605.33 759.13 605.63 751.05 C 601.35 751.03 597.02 751.21 592.91 752.47 C 592.82 755.86 592.72 759.54 590.62 762.39 C 588.51 765.36 584.41 766.25 581.02 765.44 C 578.61 764.27 578.28 761.36 578.71 759.02 C 579.95 748.70 581.34 738.41 582.63 728.10 C 583.26 722.44 591.59 719.12 595.50 723.33 C 596.32 726.66 595.69 730.16 595.60 733.56 C 599.81 733.38 604.07 733.37 608.21 732.43 C 608.60 727.44 610.40 722.19 608.15 717.37 C 607.39 714.39 604.58 712.93 602.09 711.61 C 595.67 711.21 589.16 711.17 582.89 712.79 M 528.28 717.50 C 525.73 738.51 523.19 759.52 520.70 780.53 C 524.92 780.30 529.18 780.23 533.34 779.38 C 533.53 779.09 533.89 778.50 534.07 778.21 C 536.26 757.64 539.02 737.13 541.46 716.58 C 537.05 716.62 532.62 716.67 528.28 717.50 M 466.89 723.59 C 464.62 744.61 462.40 765.64 459.67 786.61 C 470.63 785.20 481.65 784.21 492.66 783.29 C 493.87 779.43 493.88 775.36 494.33 771.39 C 488.00 772.48 481.62 772.99 475.25 773.63 C 477.50 756.53 478.98 739.35 481.33 722.27 C 476.52 722.71 471.68 722.94 466.89 723.59 M 395.54 730.35 C 392.35 751.26 391.63 772.43 388.47 793.34 C 399.71 792.02 411.77 793.33 422.20 788.17 C 430.76 784.03 433.63 773.69 433.32 764.88 C 433.18 760.52 429.20 757.97 425.68 756.28 C 433.72 752.78 437.16 743.06 435.01 734.93 C 433.79 731.01 429.79 728.81 425.91 728.41 C 418.92 727.81 411.95 729.12 404.97 729.24 C 401.80 729.32 398.66 729.77 395.54 730.35 M 353.35 734.59 C 351.04 750.26 350.11 766.12 347.72 781.78 C 347.28 785.51 344.06 788.27 340.41 788.67 C 337.27 789.51 332.29 789.55 331.71 785.40 C 331.53 780.91 332.51 776.43 332.97 771.97 C 334.16 760.07 335.90 748.22 336.90 736.30 C 332.80 736.45 328.64 736.32 324.65 737.37 C 322.66 753.22 321.06 769.11 318.85 784.93 C 318.13 790.17 320.44 796.18 325.38 798.56 C 330.60 800.96 336.48 800.04 341.88 798.90 C 347.18 797.72 352.55 795.39 355.92 790.95 C 358.69 787.59 359.86 783.25 360.42 779.01 C 362.52 763.90 364.81 748.78 365.79 733.55 C 361.67 734.13 357.52 734.56 353.35 734.59 M 273.15 742.44 C 267.02 742.77 260.96 743.75 254.82 743.98 C 253.42 746.72 253.51 750.04 253.05 753.06 C 250.69 771.29 248.89 789.60 246.73 807.86 C 251.40 807.54 256.02 806.80 260.68 806.29 C 262.15 798.88 262.04 791.23 263.55 783.82 C 272.11 782.99 281.55 782.28 288.33 776.36 C 293.56 771.43 294.74 763.86 295.15 757.03 C 295.24 752.67 295.14 747.38 291.14 744.64 C 285.87 741.17 279.14 741.44 273.15 742.44 Z" />
<path fill="#070909" opacity="1.00" d=" M 655.36 330.61 C 659.25 329.96 663.37 329.85 667.24 330.70 C 671.61 331.87 673.82 336.37 674.07 340.59 C 674.77 354.46 672.31 368.19 671.13 381.96 C 670.45 391.79 669.30 401.57 668.54 411.39 C 667.21 422.45 666.66 433.64 664.30 444.55 C 662.99 450.18 660.02 456.15 654.31 458.35 C 649.29 460.15 643.49 461.50 638.37 459.34 C 635.74 458.23 633.94 455.63 633.54 452.85 C 632.67 443.92 633.94 435.00 634.95 426.15 C 637.72 405.62 639.54 384.97 641.00 364.30 C 641.97 355.74 642.58 346.93 645.90 338.88 C 647.51 334.78 651.08 331.66 655.36 330.61 Z" />
<path fill="#070909" opacity="1.00" d=" M 511.64 344.83 C 519.20 343.34 527.17 341.20 534.80 343.28 C 540.80 345.97 540.07 353.67 540.12 359.11 C 539.24 367.80 539.49 378.15 532.59 384.57 C 525.23 389.76 515.64 388.21 507.21 389.89 C 507.94 374.81 510.88 359.91 511.64 344.83 Z" />
<path fill="#070909" opacity="1.00" d=" M 504.43 423.29 C 510.58 422.18 516.81 421.68 523.03 421.11 C 526.62 420.79 531.14 421.58 532.75 425.27 C 535.01 430.51 534.50 436.41 534.28 441.97 C 533.49 448.83 532.64 455.99 529.09 462.06 C 526.99 465.69 523.13 468.02 519.05 468.71 C 512.60 469.81 506.10 470.76 499.56 470.94 C 500.98 455.04 503.39 439.23 504.43 423.29 Z" />
<path fill="#070909" opacity="1.00" d=" M 219.56 497.54 C 224.82 494.45 230.05 491.02 236.00 489.41 C 233.65 491.62 230.95 493.42 228.46 495.47 C 199.92 520.35 186.19 560.73 193.04 597.89 C 196.81 616.38 205.35 634.01 218.12 647.96 C 230.27 661.37 246.88 670.41 264.48 674.30 C 276.75 677.07 289.53 676.62 301.86 674.58 C 318.92 671.53 334.25 662.44 347.27 651.30 C 361.03 638.81 371.41 622.50 376.74 604.69 C 380.12 594.39 380.67 583.51 381.77 572.82 C 384.42 588.90 382.66 605.43 378.30 621.07 C 372.63 638.61 362.66 654.69 349.99 668.04 C 336.42 681.40 319.37 691.46 300.74 695.77 C 265.11 704.87 224.47 693.73 199.98 665.91 C 175.81 639.49 166.27 600.76 174.80 566.04 C 180.12 538.66 195.62 512.52 219.56 497.54 Z" />
<path fill="#070909" opacity="1.00" d=" M 703.88 542.68 C 706.00 547.12 705.15 552.16 705.68 556.91 C 707.23 574.69 705.47 592.61 707.34 610.38 C 701.01 610.84 694.71 611.68 688.35 611.66 C 690.82 601.17 693.12 590.64 695.45 580.12 C 698.16 567.61 702.52 555.46 703.88 542.68 Z" />
<path fill="#070909" opacity="1.00" d=" M 837.74 699.28 C 841.90 699.21 847.08 697.22 850.43 700.58 C 852.98 703.09 852.01 706.84 851.59 709.98 C 850.31 718.01 850.32 726.28 848.24 734.17 C 846.02 740.31 838.80 740.85 833.26 741.45 C 834.18 727.34 836.67 713.37 837.74 699.28 Z" />
<path fill="#070909" opacity="1.00" d=" M 764.83 735.52 C 767.92 726.89 770.91 718.21 774.28 709.70 C 775.25 717.89 775.72 726.14 776.87 734.32 C 772.82 734.42 768.83 735.04 764.83 735.52 Z" />
<path fill="#070909" opacity="1.00" d=" M 696.01 712.44 C 700.49 712.20 705.32 711.50 709.43 713.80 C 710.58 717.83 709.52 721.96 709.25 726.04 C 708.10 733.34 708.19 740.87 706.07 747.99 C 703.82 753.78 696.69 754.35 691.36 754.51 C 692.87 740.48 694.51 726.47 696.01 712.44 Z" />
<path fill="#070909" opacity="1.00" d=" M 407.49 739.15 C 411.09 738.55 414.75 738.55 418.40 738.54 C 423.88 741.00 422.71 749.36 417.84 751.84 C 414.11 753.73 409.76 753.33 405.72 753.84 C 406.33 748.94 406.81 744.03 407.49 739.15 Z" />
<path fill="#070909" opacity="1.00" d=" M 266.80 753.29 C 270.97 752.67 275.37 751.59 279.42 753.41 C 280.79 758.57 280.84 764.48 278.29 769.30 C 275.35 773.96 269.14 773.04 264.46 773.98 C 265.44 767.10 266.19 760.20 266.80 753.29 Z" />
<path fill="#070909" opacity="1.00" d=" M 405.30 764.53 C 409.71 764.25 414.27 762.76 418.53 764.62 C 420.16 768.75 419.59 773.54 417.73 777.49 C 414.59 782.37 408.02 781.18 403.08 781.80 C 403.81 776.04 404.17 770.23 405.30 764.53 Z" />
</g>
<g id="#e20000ff">
<path fill="#e20000" opacity="1.00" d=" M 359.58 222.71 C 373.51 232.61 380.16 250.36 379.07 267.07 C 378.52 272.79 377.60 278.68 374.69 283.73 C 371.17 290.06 365.63 294.91 359.98 299.29 C 364.73 303.06 370.89 306.03 377.09 304.69 C 383.58 303.51 388.92 298.69 391.76 292.87 C 393.91 288.63 395.13 284.00 396.89 279.60 C 400.18 287.64 402.55 296.32 401.74 305.08 C 401.28 312.78 398.95 320.19 396.38 327.40 C 391.75 340.44 381.39 350.88 369.32 357.29 C 359.15 362.38 347.89 365.53 336.48 365.76 C 339.55 358.42 338.93 350.19 336.07 342.90 C 333.77 336.57 330.39 330.67 326.18 325.42 C 329.35 312.15 338.83 301.90 345.82 290.58 C 335.75 290.45 326.58 295.81 319.46 302.54 C 312.97 308.87 308.74 317.06 305.42 325.39 C 302.26 333.52 298.04 341.26 292.81 348.25 C 291.47 339.50 286.24 331.97 284.86 323.22 C 283.74 315.26 283.68 306.70 287.43 299.37 C 291.63 291.30 298.84 285.43 306.01 280.09 C 314.39 274.00 323.12 268.41 331.95 262.99 C 338.06 259.20 345.00 256.42 349.91 250.97 C 354.49 246.40 355.75 239.84 358.30 234.13 C 360.02 230.56 359.88 226.55 359.58 222.71 Z" />
<path fill="#e20000" opacity="1.00" d=" M 857.73 495.97 C 881.99 492.76 906.57 492.62 930.74 488.63 C 930.63 497.65 929.58 506.60 928.82 515.58 C 921.39 515.36 914.05 516.58 906.65 516.81 C 905.41 530.97 903.64 545.07 901.61 559.13 C 899.36 579.45 896.46 599.70 894.52 620.05 C 893.52 627.86 893.08 635.74 891.88 643.52 C 882.06 643.82 872.29 644.88 862.58 646.29 C 865.07 626.82 866.91 607.28 869.39 587.81 C 872.24 565.35 874.32 542.79 877.42 520.37 C 869.74 521.29 861.99 520.44 854.32 521.45 C 855.19 512.93 856.08 504.38 857.73 495.97 Z" />
<path fill="#e20000" opacity="1.00" d=" M 820.46 499.42 C 829.49 498.09 838.65 497.69 847.72 496.51 C 844.58 529.75 839.92 562.82 836.34 596.02 C 834.48 613.45 831.13 630.80 831.21 648.38 C 821.31 649.43 811.36 649.90 801.46 650.88 C 797.19 627.39 792.11 604.05 786.02 580.96 C 785.05 577.50 784.70 573.79 782.74 570.70 C 782.15 583.20 780.35 595.60 779.08 608.05 C 777.02 623.05 775.82 638.14 773.83 653.14 C 765.14 654.23 756.41 654.82 747.71 655.80 C 750.05 640.91 751.91 625.96 753.51 610.97 C 755.96 590.31 758.55 569.67 760.85 548.99 C 762.62 534.17 764.44 519.35 765.50 504.46 C 774.91 503.89 784.27 502.59 793.68 502.02 C 798.81 523.23 802.83 544.67 806.96 566.09 C 808.35 572.25 809.08 578.56 810.96 584.61 C 812.94 572.15 813.44 559.49 814.96 546.96 C 816.87 531.12 818.83 515.28 820.46 499.42 Z" />
<path fill="#e20000" opacity="1.00" d=" M 687.65 510.70 C 701.60 510.34 715.41 507.85 729.35 507.22 C 730.53 515.33 729.92 523.57 730.95 531.70 C 732.65 573.41 736.36 615.00 737.45 656.75 C 727.14 657.60 716.78 657.99 706.52 659.53 C 706.25 651.23 706.41 642.92 706.32 634.61 C 698.04 635.57 689.69 635.48 681.43 636.57 C 678.64 645.00 676.69 653.69 674.19 662.21 C 665.14 662.40 656.13 663.04 647.10 663.63 C 660.42 612.60 673.98 561.64 687.65 510.70 M 703.88 542.68 C 702.52 555.46 698.16 567.61 695.45 580.12 C 693.12 590.64 690.82 601.17 688.35 611.66 C 694.71 611.68 701.01 610.84 707.34 610.38 C 705.47 592.61 707.23 574.69 705.68 556.91 C 705.15 552.16 706.00 547.12 703.88 542.68 Z" />
<path fill="#e20000" opacity="1.00" d=" M 641.84 514.93 C 651.31 514.35 660.81 513.84 670.23 512.57 C 669.51 516.99 668.12 521.24 666.68 525.47 C 660.73 544.21 655.89 563.27 650.21 582.09 C 642.44 609.76 633.83 637.18 625.67 664.73 C 625.16 667.95 621.38 667.28 619.02 667.58 C 608.51 667.82 598.11 669.60 587.61 669.93 C 585.79 628.91 582.02 588.02 579.42 547.04 C 579.20 538.23 577.94 529.47 578.15 520.65 C 588.57 520.05 598.93 518.80 609.30 517.67 C 609.45 526.10 609.40 534.54 610.10 542.95 C 610.62 556.94 610.17 570.97 611.10 584.95 C 611.80 601.82 611.11 618.74 611.65 635.60 C 613.11 629.90 613.73 624.02 615.24 618.33 C 621.29 595.31 627.18 572.23 632.10 548.93 C 634.39 538.55 636.81 528.17 639.87 517.98 C 640.34 516.91 640.40 515.18 641.84 514.93 Z" />
<path fill="#e20000" opacity="1.00" d=" M 539.44 523.85 C 549.60 523.30 559.70 521.97 569.87 521.51 C 566.13 547.60 563.63 573.84 560.44 599.99 C 558.08 617.25 556.34 634.57 554.65 651.91 C 553.87 658.99 553.02 666.07 552.77 673.19 C 543.15 674.34 533.43 674.48 523.83 675.84 C 524.11 660.12 526.85 644.57 528.26 628.94 C 531.09 603.66 533.73 578.36 536.48 553.07 C 537.59 543.34 538.06 533.54 539.44 523.85 Z" />
<path fill="#e20000" opacity="1.00" d=" M 502.93 527.18 C 512.76 526.02 522.66 525.52 532.47 524.07 C 528.31 541.90 521.89 559.14 517.58 576.94 C 512.54 597.01 507.08 616.98 501.84 637.01 C 498.20 650.87 495.14 664.89 491.41 678.73 C 482.94 679.35 474.47 680.08 465.97 680.44 C 460.46 680.75 454.99 681.74 449.47 681.64 C 448.09 657.37 445.56 633.18 444.40 608.90 C 443.59 599.82 443.87 590.68 442.96 581.61 C 442.73 565.22 440.91 548.90 440.61 532.52 C 451.10 531.40 461.57 529.91 472.10 529.24 C 471.72 544.52 471.95 559.80 472.13 575.08 C 472.27 586.06 471.92 597.05 472.33 608.03 C 472.59 618.37 473.11 628.72 472.70 639.07 C 472.56 641.48 472.72 643.89 472.99 646.30 C 474.89 639.64 475.94 632.78 477.71 626.10 C 482.56 607.10 487.91 588.23 492.23 569.10 C 495.15 556.01 498.73 543.07 501.24 529.89 C 501.61 528.95 501.36 526.98 502.93 527.18 Z" />
</g>
<g id="#f7ba00ff">
<path fill="#f7ba00" opacity="1.00" d=" M 823.32 283.50 C 835.43 283.00 847.40 280.47 859.52 280.35 C 857.00 300.18 855.52 320.13 853.29 340.00 C 850.76 360.55 849.32 381.20 847.22 401.80 C 845.24 423.36 842.49 444.85 840.68 466.44 C 840.51 468.78 840.03 471.07 839.51 473.36 C 825.79 474.66 812.09 476.27 798.34 477.23 C 795.66 465.67 791.90 454.39 789.06 442.87 C 783.13 418.21 775.93 393.88 769.31 369.42 C 768.97 369.09 768.29 368.44 767.95 368.11 C 767.91 378.03 766.14 387.81 765.30 397.68 C 762.16 425.17 760.34 452.79 757.05 480.27 C 756.80 482.25 754.37 481.45 753.02 481.86 C 742.47 482.40 731.99 483.81 721.53 485.27 C 721.48 479.80 722.16 474.37 722.73 468.95 C 724.61 447.03 726.25 425.09 728.76 403.22 C 731.43 379.91 733.11 356.50 735.84 333.19 C 737.49 319.44 738.54 305.64 739.89 291.87 C 740.14 291.59 740.64 291.03 740.90 290.76 C 745.90 289.11 751.25 289.99 756.38 289.04 C 765.74 288.09 775.08 286.84 784.48 286.26 C 790.29 306.18 795.11 326.38 800.51 346.42 C 803.82 358.61 806.71 370.91 809.76 383.16 C 810.32 385.47 810.65 387.84 810.95 390.21 C 811.34 390.36 812.10 390.66 812.48 390.81 C 812.36 382.16 813.87 373.62 814.65 365.04 C 817.64 337.87 821.26 310.76 823.32 283.50 Z" />
<path fill="#f7ba00" opacity="1.00" d=" M 655.63 297.12 C 669.89 295.43 685.67 293.84 698.69 301.24 C 707.14 305.75 711.83 314.93 713.75 323.98 C 716.39 334.10 715.71 344.63 715.53 354.97 C 714.26 369.28 713.43 383.62 711.69 397.89 C 709.82 417.83 707.77 438.24 699.86 456.86 C 694.51 469.71 684.86 480.95 672.19 487.00 C 658.81 493.41 643.67 495.12 628.99 494.90 C 620.11 494.91 610.39 493.71 603.45 487.65 C 596.65 481.79 594.11 472.65 592.86 464.10 C 590.86 442.44 594.84 420.87 596.07 399.28 C 597.34 384.84 599.48 370.49 601.51 356.14 C 603.78 340.18 609.66 323.94 621.73 312.75 C 630.87 303.90 643.23 299.14 655.63 297.12 M 655.36 330.61 C 651.08 331.66 647.51 334.78 645.90 338.88 C 642.58 346.93 641.97 355.74 641.00 364.30 C 639.54 384.97 637.72 405.62 634.95 426.15 C 633.94 435.00 632.67 443.92 633.54 452.85 C 633.94 455.63 635.74 458.23 638.37 459.34 C 643.49 461.50 649.29 460.15 654.31 458.35 C 660.02 456.15 662.99 450.18 664.30 444.55 C 666.66 433.64 667.21 422.45 668.54 411.39 C 669.30 401.57 670.45 391.79 671.13 381.96 C 672.31 368.19 674.77 354.46 674.07 340.59 C 673.82 336.37 671.61 331.87 667.24 330.70 C 663.37 329.85 659.25 329.96 655.36 330.61 Z" />
<path fill="#f7ba00" opacity="1.00" d=" M 537.03 310.04 C 546.40 309.01 556.08 309.10 565.17 311.82 C 571.09 313.64 575.70 318.44 578.08 324.07 C 581.98 332.84 581.49 342.65 581.16 352.02 C 579.67 364.33 577.91 377.70 569.37 387.37 C 564.53 393.23 557.62 396.70 550.70 399.49 C 556.67 400.43 563.46 400.47 568.23 404.74 C 572.33 408.22 574.07 413.68 574.49 418.89 C 575.30 427.63 574.06 436.39 573.03 445.05 C 571.90 454.67 570.17 464.36 566.20 473.25 C 561.98 482.08 554.99 489.70 546.24 494.18 C 535.03 499.96 522.32 501.60 509.95 502.98 C 491.32 503.92 472.74 505.85 454.17 507.51 C 454.64 491.92 457.19 476.48 458.48 460.94 C 460.35 443.98 461.57 426.96 463.47 410.00 C 465.13 391.31 467.57 372.71 469.04 354.00 C 470.42 341.18 471.45 328.33 473.06 315.54 C 494.49 315.03 515.66 311.41 537.03 310.04 M 511.64 344.83 C 510.88 359.91 507.94 374.81 507.21 389.89 C 515.64 388.21 525.23 389.76 532.59 384.57 C 539.49 378.15 539.24 367.80 540.12 359.11 C 540.07 353.67 540.80 345.97 534.80 343.28 C 527.17 341.20 519.20 343.34 511.64 344.83 M 504.43 423.29 C 503.39 439.23 500.98 455.04 499.56 470.94 C 506.10 470.76 512.60 469.81 519.05 468.71 C 523.13 468.02 526.99 465.69 529.09 462.06 C 532.64 455.99 533.49 448.83 534.28 441.97 C 534.50 436.41 535.01 430.51 532.75 425.27 C 531.14 421.58 526.62 420.79 523.03 421.11 C 516.81 421.68 510.58 422.18 504.43 423.29 Z" />
<path fill="#f7ba00" opacity="1.00" d=" M 296.48 355.52 C 303.38 349.51 312.75 345.02 322.05 346.80 C 326.04 349.35 326.85 354.83 325.49 359.08 C 315.74 360.32 306.99 366.63 301.97 374.97 C 297.45 382.10 297.20 390.81 294.46 398.62 C 289.49 399.03 284.16 399.80 279.49 397.57 C 277.42 396.59 278.21 393.80 278.13 391.99 C 279.87 378.23 286.42 365.07 296.48 355.52 Z" />
<path fill="#f7ba00" opacity="1.00" d=" M 279.02 418.25 C 289.04 416.98 299.14 418.39 309.06 419.82 C 312.98 420.27 316.67 423.20 317.58 427.10 C 317.91 431.28 317.20 435.48 316.32 439.56 C 303.80 438.72 291.34 436.82 278.76 437.55 C 278.04 445.18 278.05 452.86 278.39 460.51 C 309.30 459.84 340.20 471.17 363.57 491.37 C 377.43 503.45 387.94 519.13 394.75 536.16 C 409.09 573.29 405.23 616.51 386.09 651.22 C 381.48 659.39 377.45 668.02 371.08 675.03 C 361.31 685.76 349.64 694.78 336.99 701.87 C 318.51 711.49 297.78 717.00 276.93 717.32 C 260.04 716.81 242.81 714.79 227.23 707.87 C 211.47 701.58 198.01 690.77 186.16 678.83 C 158.01 648.91 147.52 604.91 155.19 564.98 C 157.65 549.55 163.43 534.81 171.45 521.45 C 177.22 511.57 184.09 502.28 192.48 494.45 C 205.43 480.96 222.33 472.15 239.49 465.22 C 241.56 453.19 240.13 440.92 240.81 428.80 C 241.52 425.47 243.01 421.83 246.26 420.27 C 249.83 418.35 254.01 418.59 257.93 418.56 C 264.96 418.76 272.01 418.98 279.02 418.25 M 219.56 497.54 C 195.62 512.52 180.12 538.66 174.80 566.04 C 166.27 600.76 175.81 639.49 199.98 665.91 C 224.47 693.73 265.11 704.87 300.74 695.77 C 319.37 691.46 336.42 681.40 349.99 668.04 C 362.66 654.69 372.63 638.61 378.30 621.07 C 382.66 605.43 384.42 588.90 381.77 572.82 C 380.67 583.51 380.12 594.39 376.74 604.69 C 371.41 622.50 361.03 638.81 347.27 651.30 C 334.25 662.44 318.92 671.53 301.86 674.58 C 289.53 676.62 276.75 677.07 264.48 674.30 C 246.88 670.41 230.27 661.37 218.12 647.96 C 205.35 634.01 196.81 616.38 193.04 597.89 C 186.19 560.73 199.92 520.35 228.46 495.47 C 230.95 493.42 233.65 491.62 236.00 489.41 C 230.05 491.02 224.82 494.45 219.56 497.54 Z" />
</g>
<g id="#edeec7ff">
<path fill="#edeec7" opacity="1.00" d=" M 825.21 690.46 C 835.05 689.02 845.03 688.07 854.99 688.69 C 858.82 690.25 863.02 692.16 864.79 696.20 C 867.31 701.55 865.89 707.50 865.36 713.10 C 864.24 721.34 864.18 729.97 860.70 737.69 C 857.83 743.96 851.63 748.06 845.12 749.78 C 836.14 752.14 826.74 751.67 817.65 753.29 C 818.56 742.86 820.33 732.53 821.28 722.11 C 822.63 711.56 823.41 700.94 825.21 690.46 M 837.74 699.28 C 836.67 713.37 834.18 727.34 833.26 741.45 C 838.80 740.85 846.02 740.31 848.24 734.17 C 850.32 726.28 850.31 718.01 851.59 709.98 C 852.01 706.84 852.98 703.09 850.43 700.58 C 847.08 697.22 841.90 699.21 837.74 699.28 Z" />
<path fill="#edeec7" opacity="1.00" d=" M 766.09 696.51 C 772.48 695.59 778.95 695.07 785.40 694.64 C 787.51 709.35 788.82 724.16 790.55 738.92 C 790.91 744.32 791.92 749.68 791.84 755.12 C 787.35 755.36 782.93 756.22 778.44 756.39 C 778.29 752.49 778.22 748.60 777.63 744.75 C 772.08 745.71 766.43 745.82 760.85 746.51 C 759.20 750.62 758.96 755.60 756.18 759.11 C 751.84 759.57 747.47 759.45 743.13 759.81 C 749.07 743.52 754.91 727.19 760.99 710.95 C 762.70 706.14 764.85 701.47 766.09 696.51 M 764.83 735.52 C 768.83 735.04 772.82 734.42 776.87 734.32 C 775.72 726.14 775.25 717.89 774.28 709.70 C 770.91 718.21 767.92 726.89 764.83 735.52 Z" />
<path fill="#edeec7" opacity="1.00" d=" M 683.58 703.55 C 691.72 703.11 699.81 701.76 707.99 702.07 C 713.18 701.75 718.81 703.70 721.89 708.06 C 724.76 712.20 724.31 717.50 723.81 722.25 C 722.54 730.86 722.17 739.65 719.83 748.06 C 717.44 756.49 709.28 761.99 700.98 763.50 C 692.73 764.97 684.31 765.13 676.06 766.58 C 677.76 749.68 679.89 732.83 681.69 715.94 C 682.39 711.81 682.22 707.55 683.58 703.55 M 696.01 712.44 C 694.51 726.47 692.87 740.48 691.36 754.51 C 696.69 754.35 703.82 753.78 706.07 747.99 C 708.19 740.87 708.10 733.34 709.25 726.04 C 709.52 721.96 710.58 717.83 709.43 713.80 C 705.32 711.50 700.49 712.20 696.01 712.44 Z" />
<path fill="#edeec7" opacity="1.00" d=" M 639.93 707.48 C 643.93 707.30 647.92 707.02 651.89 706.55 C 650.58 721.70 648.27 736.76 646.83 751.90 C 646.09 757.76 645.80 763.70 644.52 769.48 C 640.15 769.76 635.78 770.01 631.41 770.30 C 633.87 752.59 636.06 734.84 638.40 717.12 C 638.71 713.87 638.65 710.53 639.93 707.48 Z" />
<path fill="#edeec7" opacity="1.00" d=" M 582.89 712.79 C 589.16 711.17 595.67 711.21 602.09 711.61 C 604.58 712.93 607.39 714.39 608.15 717.37 C 610.40 722.19 608.60 727.44 608.21 732.43 C 604.07 733.37 599.81 733.38 595.60 733.56 C 595.69 730.16 596.32 726.66 595.50 723.33 C 591.59 719.12 583.26 722.44 582.63 728.10 C 581.34 738.41 579.95 748.70 578.71 759.02 C 578.28 761.36 578.61 764.27 581.02 765.44 C 584.41 766.25 588.51 765.36 590.62 762.39 C 592.72 759.54 592.82 755.86 592.91 752.47 C 597.02 751.21 601.35 751.03 605.63 751.05 C 605.33 759.13 602.79 768.09 595.45 772.53 C 588.75 776.27 580.62 776.77 573.15 775.82 C 567.61 774.82 564.37 769.19 564.76 763.85 C 565.74 752.71 567.37 741.63 568.98 730.57 C 569.67 726.12 571.13 721.63 574.15 718.20 C 576.45 715.56 579.73 714.13 582.89 712.79 Z" />
<path fill="#edeec7" opacity="1.00" d=" M 528.28 717.50 C 532.62 716.67 537.05 716.62 541.46 716.58 C 539.02 737.13 536.26 757.64 534.07 778.21 C 533.89 778.50 533.53 779.09 533.34 779.38 C 529.18 780.23 524.92 780.30 520.70 780.53 C 523.19 759.52 525.73 738.51 528.28 717.50 Z" />
<path fill="#edeec7" opacity="1.00" d=" M 466.89 723.59 C 471.68 722.94 476.52 722.71 481.33 722.27 C 478.98 739.35 477.50 756.53 475.25 773.63 C 481.62 772.99 488.00 772.48 494.33 771.39 C 493.88 775.36 493.87 779.43 492.66 783.29 C 481.65 784.21 470.63 785.20 459.67 786.61 C 462.40 765.64 464.62 744.61 466.89 723.59 Z" />
<path fill="#edeec7" opacity="1.00" d=" M 395.54 730.35 C 398.66 729.77 401.80 729.32 404.97 729.24 C 411.95 729.12 418.92 727.81 425.91 728.41 C 429.79 728.81 433.79 731.01 435.01 734.93 C 437.16 743.06 433.72 752.78 425.68 756.28 C 429.20 757.97 433.18 760.52 433.32 764.88 C 433.63 773.69 430.76 784.03 422.20 788.17 C 411.77 793.33 399.71 792.02 388.47 793.34 C 391.63 772.43 392.35 751.26 395.54 730.35 M 407.49 739.15 C 406.81 744.03 406.33 748.94 405.72 753.84 C 409.76 753.33 414.11 753.73 417.84 751.84 C 422.71 749.36 423.88 741.00 418.40 738.54 C 414.75 738.55 411.09 738.55 407.49 739.15 M 405.30 764.53 C 404.17 770.23 403.81 776.04 403.08 781.80 C 408.02 781.18 414.59 782.37 417.73 777.49 C 419.59 773.54 420.16 768.75 418.53 764.62 C 414.27 762.76 409.71 764.25 405.30 764.53 Z" />
<path fill="#edeec7" opacity="1.00" d=" M 353.35 734.59 C 357.52 734.56 361.67 734.13 365.79 733.55 C 364.81 748.78 362.52 763.90 360.42 779.01 C 359.86 783.25 358.69 787.59 355.92 790.95 C 352.55 795.39 347.18 797.72 341.88 798.90 C 336.48 800.04 330.60 800.96 325.38 798.56 C 320.44 796.18 318.13 790.17 318.85 784.93 C 321.06 769.11 322.66 753.22 324.65 737.37 C 328.64 736.32 332.80 736.45 336.90 736.30 C 335.90 748.22 334.16 760.07 332.97 771.97 C 332.51 776.43 331.53 780.91 331.71 785.40 C 332.29 789.55 337.27 789.51 340.41 788.67 C 344.06 788.27 347.28 785.51 347.72 781.78 C 350.11 766.12 351.04 750.26 353.35 734.59 Z" />
<path fill="#edeec7" opacity="1.00" d=" M 273.15 742.44 C 279.14 741.44 285.87 741.17 291.14 744.64 C 295.14 747.38 295.24 752.67 295.15 757.03 C 294.74 763.86 293.56 771.43 288.33 776.36 C 281.55 782.28 272.11 782.99 263.55 783.82 C 262.04 791.23 262.15 798.88 260.68 806.29 C 256.02 806.80 251.40 807.54 246.73 807.86 C 248.89 789.60 250.69 771.29 253.05 753.06 C 253.51 750.04 253.42 746.72 254.82 743.98 C 260.96 743.75 267.02 742.77 273.15 742.44 M 266.80 753.29 C 266.19 760.20 265.44 767.10 264.46 773.98 C 269.14 773.04 275.35 773.96 278.29 769.30 C 280.84 764.48 280.79 758.57 279.42 753.41 C 275.37 751.59 270.97 752.67 266.80 753.29 Z" />
</g>
</svg>
